<mxfile modified="2023-08-23T19:01:41.727Z" host="Electron" agent="Mozilla/5.0 (X11; Linux x86_64) AppleWebKit/537.36 (KHTML, like Gecko) draw.io/21.6.8 Chrome/114.0.5735.134 Electron/25.5.0 Safari/537.36" etag="J9M8glEJH6bHOIsJyzRS" version="21.6.8" type="device" pages="2">
  <diagram id="f106602c-feb2-e66a-4537-3a34d633f6aa" name="Sigle-SignOn">
    <mxGraphModel dx="1420" dy="820" grid="1" gridSize="3" guides="1" tooltips="1" connect="1" arrows="1" fold="1" page="1" pageScale="1" pageWidth="1169" pageHeight="827" background="none" math="0" shadow="0">
      <root>
        <mxCell id="0" />
        <mxCell id="1" parent="0" />
        <mxCell id="ostM4DqCz_2PRFzFMqsc-168" value="" style="fillColor=none;dashed=1;dashPattern=8 8;fontColor=#ffffff;strokeColor=#808080;" parent="1" vertex="1">
          <mxGeometry x="826" y="48" width="267" height="730" as="geometry">
            <mxRectangle x="684" y="303" width="21" height="15" as="alternateBounds" />
          </mxGeometry>
        </mxCell>
        <mxCell id="ostM4DqCz_2PRFzFMqsc-170" value="&lt;h1 style=&quot;font-size: 14px;&quot;&gt;&lt;font style=&quot;font-size: 14px;&quot;&gt;[Container] Lorem ipsum dolor sit amet&lt;/font&gt;&lt;/h1&gt;&lt;p style=&quot;font-size: 14px;&quot;&gt;&lt;font color=&quot;#808080&quot; style=&quot;font-size: 14px;&quot;&gt;Lorem ipsum dolor sit amet, consectetur adipisicing elit, sed do eiusmod tempor incididunt ut labore et dolore magna aliqua.&lt;/font&gt;&lt;/p&gt;" style="text;html=1;strokeColor=none;fillColor=none;spacing=5;spacingTop=-20;whiteSpace=wrap;overflow=hidden;rounded=0;" parent="1" vertex="1">
          <mxGeometry x="12" y="726" width="498" height="87" as="geometry" />
        </mxCell>
        <mxCell id="ostM4DqCz_2PRFzFMqsc-188" value="" style="group;fillColor=none;container=0;" parent="1" vertex="1" connectable="0">
          <mxGeometry x="96" y="70" width="222" height="147" as="geometry" />
        </mxCell>
        <mxCell id="ostM4DqCz_2PRFzFMqsc-189" value="" style="endArrow=classic;dashed=1;html=1;curved=1;dashPattern=8 8;endFill=1;strokeColor=#808080;" parent="1" edge="1">
          <mxGeometry width="50" height="50" relative="1" as="geometry">
            <mxPoint x="321" y="116" as="sourcePoint" />
            <mxPoint x="849" y="116" as="targetPoint" />
            <Array as="points">
              <mxPoint x="582" y="23" />
            </Array>
          </mxGeometry>
        </mxCell>
        <mxCell id="tagba7AZJLhTc8VXgrd6-3" value="1: Request&lt;br&gt;authentication with&lt;br&gt;Google Single Sign-On.&lt;br&gt;[JSON/HTTPS]" style="edgeLabel;html=1;align=center;verticalAlign=middle;resizable=0;points=[];" parent="ostM4DqCz_2PRFzFMqsc-189" vertex="1" connectable="0">
          <mxGeometry x="-0.1323" y="-33" relative="1" as="geometry">
            <mxPoint as="offset" />
          </mxGeometry>
        </mxCell>
        <mxCell id="ostM4DqCz_2PRFzFMqsc-192" value="" style="endArrow=classic;dashed=1;html=1;curved=1;dashPattern=8 8;endFill=1;strokeColor=#808080;" parent="1" edge="1">
          <mxGeometry width="50" height="50" relative="1" as="geometry">
            <mxPoint x="318" y="560" as="sourcePoint" />
            <mxPoint x="849" y="563" as="targetPoint" />
            <Array as="points">
              <mxPoint x="579" y="467" />
            </Array>
          </mxGeometry>
        </mxCell>
        <mxCell id="ostM4DqCz_2PRFzFMqsc-194" value="" style="endArrow=classic;dashed=1;html=1;curved=1;dashPattern=8 8;endFill=1;strokeColor=#808080;" parent="1" edge="1">
          <mxGeometry width="50" height="50" relative="1" as="geometry">
            <mxPoint x="846" y="174" as="sourcePoint" />
            <mxPoint x="318" y="174" as="targetPoint" />
            <Array as="points">
              <mxPoint x="579" y="252" />
            </Array>
          </mxGeometry>
        </mxCell>
        <mxCell id="ostM4DqCz_2PRFzFMqsc-195" value="" style="endArrow=classic;dashed=1;html=1;curved=1;dashPattern=8 8;endFill=1;strokeColor=#808080;" parent="1" edge="1">
          <mxGeometry width="50" height="50" relative="1" as="geometry">
            <mxPoint x="846" y="626" as="sourcePoint" />
            <mxPoint x="318" y="626" as="targetPoint" />
            <Array as="points">
              <mxPoint x="579" y="711" />
            </Array>
          </mxGeometry>
        </mxCell>
        <mxCell id="ostM4DqCz_2PRFzFMqsc-181" value="" style="group;rounded=1;arcSize=4;pointerEvents=0;strokeColor=#B20000;fontFamily=Helvetica;fontSize=12;fontColor=#ffffff;fillColor=#e51400;container=0;" parent="1" vertex="1" connectable="0">
          <mxGeometry x="96" y="70" width="222" height="147" as="geometry" />
        </mxCell>
        <mxCell id="ostM4DqCz_2PRFzFMqsc-182" value="&lt;b style=&quot;font-size: 14px;&quot;&gt;Single-Page Application&lt;/b&gt;&lt;br&gt;&lt;font style=&quot;font-size: 12px;&quot;&gt;&lt;b style=&quot;&quot;&gt;[Container: React]&lt;/b&gt;&lt;br&gt;&lt;/font&gt;&lt;font style=&quot;font-size: 12px;&quot;&gt;Provides all of the Applications Functionality to customers via their web browser.&lt;/font&gt;" style="rounded=1;arcSize=4;whiteSpace=wrap;html=1;shadow=0;glass=0;fontFamily=Helvetica;fontSize=12;verticalAlign=middle;pointerEvents=0;fillColor=#fad9d5;strokeColor=#ae4132;" parent="1" vertex="1">
          <mxGeometry x="101.15999999999997" y="92.97000000000003" width="210.84" height="117.91" as="geometry" />
        </mxCell>
        <mxCell id="ostM4DqCz_2PRFzFMqsc-183" value="" style="rounded=1;arcSize=45;whiteSpace=wrap;html=1;shadow=0;glass=0;fontFamily=Helvetica;fontSize=12;pointerEvents=0;fillColor=#fad9d5;strokeColor=#ae4132;" parent="1" vertex="1">
          <mxGeometry x="155.09000000000003" y="77.65999999999997" width="156.91" height="9.19" as="geometry" />
        </mxCell>
        <mxCell id="ostM4DqCz_2PRFzFMqsc-184" value="" style="ellipse;whiteSpace=wrap;html=1;aspect=fixed;rounded=1;shadow=0;glass=0;fontFamily=Helvetica;fontSize=12;pointerEvents=0;fillColor=#fad9d5;strokeColor=#ae4132;" parent="1" vertex="1">
          <mxGeometry x="119.13999999999999" y="77.65625" width="9.1875" height="9.1875" as="geometry" />
        </mxCell>
        <mxCell id="ostM4DqCz_2PRFzFMqsc-185" value="" style="ellipse;whiteSpace=wrap;html=1;aspect=fixed;rounded=1;shadow=0;glass=0;fontFamily=Helvetica;fontSize=12;pointerEvents=0;fillColor=#fad9d5;strokeColor=#ae4132;" parent="1" vertex="1">
          <mxGeometry x="101.16624999999999" y="77.65625" width="9.1875" height="9.1875" as="geometry" />
        </mxCell>
        <mxCell id="ostM4DqCz_2PRFzFMqsc-186" value="" style="ellipse;whiteSpace=wrap;html=1;aspect=fixed;rounded=1;shadow=0;glass=0;fontFamily=Helvetica;fontSize=12;pointerEvents=0;fillColor=#fad9d5;strokeColor=#ae4132;" parent="1" vertex="1">
          <mxGeometry x="137.11625000000004" y="77.65625" width="9.1875" height="9.1875" as="geometry" />
        </mxCell>
        <mxCell id="tagba7AZJLhTc8VXgrd6-4" value="&lt;font color=&quot;#808080&quot;&gt;&lt;b&gt;API Application&lt;br&gt;&lt;/b&gt;[Container: Nestjs]&lt;/font&gt;" style="text;strokeColor=none;align=center;fillColor=none;html=1;verticalAlign=middle;whiteSpace=wrap;rounded=0;" parent="1" vertex="1">
          <mxGeometry x="899" y="726" width="121" height="30" as="geometry" />
        </mxCell>
        <object label="%name%&lt;br&gt;[%type%]&lt;br&gt;&lt;span style=&quot;font-weight: normal;&quot;&gt;%description%&lt;/span&gt;" placeholders="1" name="Google SSO Controller" type="Component: Nestjs Controller" description="Allows users to sign in to the application using Google single sign-on - SSO" id="tagba7AZJLhTc8VXgrd6-6">
          <mxCell style="group;fillColor=#e51400;fontColor=#ffffff;strokeColor=#B20000;rounded=0;arcSize=4;container=0;verticalAlign=middle;fontStyle=1;whiteSpace=wrap;html=1;" parent="1" vertex="1" connectable="0">
            <mxGeometry x="849" y="70" width="222" height="147" as="geometry" />
          </mxCell>
        </object>
        <mxCell id="tagba7AZJLhTc8VXgrd6-20" value="" style="endArrow=classic;dashed=1;html=1;curved=1;dashPattern=8 8;endFill=1;strokeColor=#808080;rounded=0;" parent="1" edge="1">
          <mxGeometry width="50" height="50" relative="1" as="geometry">
            <mxPoint x="996" y="219" as="sourcePoint" />
            <mxPoint x="1001.88" y="522" as="targetPoint" />
            <Array as="points">
              <mxPoint x="1061.88" y="369" />
            </Array>
          </mxGeometry>
        </mxCell>
        <mxCell id="MGQx2_ZrCY7oJilko8P3-1" value="&lt;div&gt;2: request google&lt;/div&gt;&lt;div&gt;url to validate&amp;nbsp;&lt;/div&gt;&lt;div&gt;user credentials&lt;/div&gt;" style="edgeLabel;html=1;align=center;verticalAlign=middle;resizable=0;points=[];" vertex="1" connectable="0" parent="tagba7AZJLhTc8VXgrd6-20">
          <mxGeometry x="0.0763" y="-27" relative="1" as="geometry">
            <mxPoint as="offset" />
          </mxGeometry>
        </mxCell>
        <mxCell id="tagba7AZJLhTc8VXgrd6-21" value="" style="endArrow=classic;dashed=1;html=1;curved=1;dashPattern=8 8;endFill=1;strokeColor=#808080;rounded=0;" parent="1" edge="1">
          <mxGeometry width="50" height="50" relative="1" as="geometry">
            <mxPoint x="926.88" y="521" as="sourcePoint" />
            <mxPoint x="921" y="218" as="targetPoint" />
            <Array as="points">
              <mxPoint x="849" y="375" />
            </Array>
          </mxGeometry>
        </mxCell>
        <mxCell id="MGQx2_ZrCY7oJilko8P3-2" value="3: return url&amp;nbsp;" style="edgeLabel;html=1;align=center;verticalAlign=middle;resizable=0;points=[];" vertex="1" connectable="0" parent="tagba7AZJLhTc8VXgrd6-21">
          <mxGeometry x="0.0991" y="-32" relative="1" as="geometry">
            <mxPoint as="offset" />
          </mxGeometry>
        </mxCell>
        <object label="%name%&lt;br&gt;[%type%]&lt;br&gt;&lt;span style=&quot;font-weight: normal;&quot;&gt;%description%&lt;/span&gt;" placeholders="1" name="Google SSO Service" type="Component: Nestjs Service" description="Allows users to sign in to the application using Google single sign-on - SSO" id="tagba7AZJLhTc8VXgrd6-22">
          <mxCell style="group;fillColor=#e51400;fontColor=#ffffff;strokeColor=#B20000;rounded=0;arcSize=4;container=0;verticalAlign=middle;fontStyle=1;whiteSpace=wrap;html=1;" parent="1" vertex="1" connectable="0">
            <mxGeometry x="849" y="521" width="222" height="147" as="geometry" />
          </mxCell>
        </object>
        <object label="%name%&lt;br&gt;[%type%]&lt;br&gt;&lt;span style=&quot;font-weight: normal;&quot;&gt;%description%&lt;/span&gt;" placeholders="1" name="Name of the Component" type="type eg: Person, Software System, Container: tecnology." description="Some Description" id="tagba7AZJLhTc8VXgrd6-30">
          <mxCell style="group;fillColor=#e51400;fontColor=#ffffff;strokeColor=#B20000;rounded=0;arcSize=4;container=0;verticalAlign=middle;fontStyle=1;whiteSpace=wrap;html=1;" parent="1" vertex="1" connectable="0">
            <mxGeometry x="95.58000000000004" y="521" width="222" height="147" as="geometry" />
          </mxCell>
        </object>
        <mxCell id="MGQx2_ZrCY7oJilko8P3-3" value="&lt;div style=&quot;text-align: left;&quot;&gt;&lt;span style=&quot;background-color: initial;&quot;&gt;1. solicita url&lt;/span&gt;&lt;/div&gt;&lt;div style=&quot;text-align: left;&quot;&gt;&lt;span style=&quot;background-color: initial;&quot;&gt;2. se tiver url ativa o botão&lt;/span&gt;&lt;/div&gt;&lt;div style=&quot;text-align: left;&quot;&gt;&lt;span style=&quot;background-color: initial;&quot;&gt;3. se clicar no botão send the user ot the consensus screen&lt;/span&gt;&lt;/div&gt;" style="text;html=1;align=center;verticalAlign=middle;resizable=0;points=[];autosize=1;strokeColor=none;fillColor=none;" vertex="1" parent="1">
          <mxGeometry x="110.35" y="279" width="336" height="57" as="geometry" />
        </mxCell>
      </root>
    </mxGraphModel>
  </diagram>
  <diagram id="vvCgSIcsh5LfBehU65wf" name="Page-2">
    <mxGraphModel dx="1434" dy="834" grid="1" gridSize="10" guides="1" tooltips="1" connect="1" arrows="1" fold="1" page="1" pageScale="1" pageWidth="850" pageHeight="1100" math="0" shadow="0">
      <root>
        <mxCell id="0" />
        <mxCell id="1" parent="0" />
      </root>
    </mxGraphModel>
  </diagram>
</mxfile>
